TITLE ""
FILE "DISC2Track18.mp3" MP3
  TRACK 01 AUDIO
    TITLE "DISC2Track18_01"
    INDEX 01 00:00:00
  TRACK 02 AUDIO
    TITLE "DISC2Track18_02"
    INDEX 01 00:03:18
  TRACK 03 AUDIO
    TITLE "DISC2Track18_03"
    INDEX 01 00:03:40
  TRACK 04 AUDIO
    TITLE "DISC2Track18_04"
    INDEX 01 00:06:13
  TRACK 05 AUDIO
    TITLE "DISC2Track18_05"
    INDEX 01 00:08:35
  TRACK 06 AUDIO
    TITLE "DISC2Track18_06"
    INDEX 01 00:10:52
  TRACK 07 AUDIO
    TITLE "DISC2Track18_07"
    INDEX 01 00:11:02
  TRACK 08 AUDIO
    TITLE "DISC2Track18_08"
    INDEX 01 00:14:71
  TRACK 09 AUDIO
    TITLE "DISC2Track18_09"
    INDEX 01 00:17:71
  TRACK 10 AUDIO
    TITLE "DISC2Track18_10"
    INDEX 01 00:20:70
  TRACK 11 AUDIO
    TITLE "DISC2Track18_11"
    INDEX 01 00:21:16
  TRACK 12 AUDIO
    TITLE "DISC2Track18_12"
    INDEX 01 00:24:34
  TRACK 13 AUDIO
    TITLE "DISC2Track18_13"
    INDEX 01 00:27:07
  TRACK 14 AUDIO
    TITLE "DISC2Track18_14"
    INDEX 01 00:29:51
  TRACK 15 AUDIO
    TITLE "DISC2Track18_15"
    INDEX 01 00:30:00
  TRACK 16 AUDIO
    TITLE "DISC2Track18_16"
    INDEX 01 00:33:59
  TRACK 17 AUDIO
    TITLE "DISC2Track18_17"
    INDEX 01 00:37:15
  TRACK 18 AUDIO
    TITLE "DISC2Track18_18"
    INDEX 01 00:40:43
  TRACK 19 AUDIO
    TITLE "DISC2Track18_19"
    INDEX 01 00:40:67
  TRACK 20 AUDIO
    TITLE "DISC2Track18_20"
    INDEX 01 00:44:45
  TRACK 21 AUDIO
    TITLE "DISC2Track18_21"
    INDEX 01 00:48:13
  TRACK 22 AUDIO
    TITLE "DISC2Track18_22"
    INDEX 01 00:51:43
  TRACK 23 AUDIO
    TITLE "DISC2Track18_23"
    INDEX 01 00:51:74
  TRACK 24 AUDIO
    TITLE "DISC2Track18_24"
    INDEX 01 00:54:71
  TRACK 25 AUDIO
    TITLE "DISC2Track18_25"
    INDEX 01 00:57:34
  TRACK 26 AUDIO
    TITLE "DISC2Track18_26"
    INDEX 01 00:59:66
  TRACK 27 AUDIO
    TITLE "DISC2Track18_27"
    INDEX 01 01:00:12
  TRACK 28 AUDIO
    TITLE "DISC2Track18_28"
    INDEX 01 01:03:72
  TRACK 29 AUDIO
    TITLE "DISC2Track18_29"
    INDEX 01 01:06:64
  TRACK 30 AUDIO
    TITLE "DISC2Track18_30"
    INDEX 01 01:09:53
  TRACK 31 AUDIO
    TITLE "DISC2Track18_31"
    INDEX 01 01:09:72
  TRACK 32 AUDIO
    TITLE "DISC2Track18_32"
    INDEX 01 01:14:60
  TRACK 33 AUDIO
    TITLE "DISC2Track18_33"
    INDEX 01 01:19:02
  TRACK 34 AUDIO
    TITLE "DISC2Track18_34"
    INDEX 01 01:23:16
  TRACK 35 AUDIO
    TITLE "DISC2Track18_35"
    INDEX 01 01:23:37
  TRACK 36 AUDIO
    TITLE "DISC2Track18_36"
    INDEX 01 01:27:11
  TRACK 37 AUDIO
    TITLE "DISC2Track18_37"
    INDEX 01 01:30:14
  TRACK 38 AUDIO
    TITLE "DISC2Track18_38"
    INDEX 01 01:33:10
  TRACK 39 AUDIO
    TITLE "DISC2Track18_39"
    INDEX 01 01:33:33
  TRACK 40 AUDIO
    TITLE "DISC2Track18_40"
    INDEX 01 01:37:25
  TRACK 41 AUDIO
    TITLE "DISC2Track18_41"
    INDEX 01 01:41:10
  TRACK 42 AUDIO
    TITLE "DISC2Track18_42"
    INDEX 01 01:44:55
